<svg t="1690873836870"  viewBox="0 0 1024 1024" version="1.1" xmlns="http://www.w3.org/2000/svg" p-id="2157" ><path d="M943.157895 519.545263c0-34.384842-2.586947-63.434105-10.24-84.614737 2.533053-21.126737-10.293895-36.971789-30.82779-42.253473h-2.586947c-35.893895-7.922526-61.547789-26.408421-82.081684-63.380211-18.000842-31.744-23.120842-68.715789-10.24-103.046737 7.653053-15.845053 2.533053-37.025684-12.880842-50.229894-38.480842-36.971789-87.255579-66.021053-141.150316-84.506948-15.413895-7.976421-35.947789-2.694737-48.774737 13.204211-23.066947 29.049263-56.427789 44.894316-94.962526 44.894315-33.360842 0-66.721684-15.845053-94.962527-44.894315-17.946947-18.485895-35.893895-15.845053-48.720842-13.204211-56.481684 21.126737-100.082526 47.535158-136.030316 81.92a36.810105 36.810105 0 0 0-15.413894 47.535158c10.24 39.612632 7.706947 76.584421-10.24 108.328421-15.413895 31.690105-46.187789 52.816842-82.135579 63.380211-2.586947 0-5.12 0-5.12 2.694736-12.826947 7.868632-23.120842 18.432-25.70779 31.636211v2.694737C85.962105 458.698105 80.842105 485.106526 80.842105 516.850526c0 34.384842 2.586947 63.434105 10.24 84.560842-2.533053 15.845053 5.173895 31.690105 28.240842 42.253474h2.586948c35.947789 7.922526 61.601684 26.408421 82.135579 63.434105 17.946947 31.690105 23.066947 68.661895 10.24 103.046737-7.706947 15.845053-2.533053 36.971789 12.826947 50.176a419.732211 419.732211 0 0 0 141.204211 87.201684h2.533052c2.586947 0 2.586947 2.640842 5.12 2.640843h5.12a49.960421 49.960421 0 0 0 35.94779-15.845053c23.120842-29.103158 56.481684-44.948211 94.962526-44.948211 33.360842 0 66.721684 15.898947 94.962526 44.948211 10.24 10.563368 20.48 15.845053 33.360842 15.845053 5.12 0 12.826947 0 17.946948-2.640843 59.068632-23.767579 100.082526-50.176 138.617263-84.560842 15.36-10.563368 23.066947-31.690105 15.36-47.535158-10.24-39.666526-7.653053-76.638316 10.24-108.328421 15.467789-31.690105 46.241684-52.816842 82.189474-63.434105 2.533053 0 5.12 0 5.12-2.640842 12.826947-7.922526 23.120842-18.485895 25.653894-31.690105v-2.640842c5.12-29.103158 7.706947-58.098526 7.706948-87.201685zM140.773053 443.014737a179.577263 179.577263 0 0 0 110.861473-86.447158c22.689684-44.517053 30.288842-94.315789 17.677474-144.060632A398.982737 398.982737 0 0 1 385.185684 141.743158c37.834105 36.648421 80.680421 57.667368 128.592842 57.667368 50.391579 0 98.250105-21.018947 128.485053-57.667368 42.846316 15.737263 80.680421 39.343158 113.448421 70.763789-12.611368 52.385684-7.545263 102.130526 17.623579 144.060632a170.307368 170.307368 0 0 0 108.328421 89.088c5.066105 20.965053 7.599158 47.157895 7.599158 73.350737 0 20.965053-2.533053 41.930105-7.545263 70.763789-50.445474 15.683368-88.225684 47.104-108.382316 89.034106-22.635789 44.570947-30.234947 94.315789-17.623579 144.114526a398.982737 398.982737 0 0 1-115.927579 70.709895c-37.834105-36.648421-83.213474-54.972632-128.538947-54.972632-50.391579 0-95.770947 20.911158-128.538948 57.613474a322.398316 322.398316 0 0 1-113.394526-70.76379c12.611368-52.385684 7.545263-102.130526-17.677474-144.060631a170.307368 170.307368 0 0 0-108.328421-89.088A344.010105 344.010105 0 0 1 135.760842 519.006316c-2.533053-26.192842 0-47.157895 5.012211-75.991579z m525.365894 22.635789a27.324632 27.324632 0 0 0-30.073263-17.246315c-12.557474 4.958316-20.102737 19.779368-15.090526 32.121263 7.545263 19.779368 7.545263 44.463158 0 71.68a126.490947 126.490947 0 0 1-55.188211 64.242526c-27.594105 12.395789-57.721263 14.821053-85.315368 4.958316a127.407158 127.407158 0 0 1-65.266526-54.433684c-12.557474-27.162947-15.090526-56.805053-5.012211-83.968A126.490947 126.490947 0 0 1 465.381053 418.762105c27.594105-12.395789 57.721263-14.821053 85.315368-4.958316 12.557474 4.958316 27.648-2.479158 32.660211-14.821052 5.012211-12.395789-2.533053-27.162947-15.090527-32.121263a158.989474 158.989474 0 0 0-125.466947 7.383579c-40.151579 19.779368-70.278737 51.900632-82.782316 91.459368a152.198737 152.198737 0 0 0 7.545263 123.526737c20.048842 39.558737 52.655158 69.200842 92.806737 81.596631 15.090526 4.904421 35.139368 9.862737 52.709053 9.862737a161.899789 161.899789 0 0 0 153.061052-108.705684c10.078316-37.079579 10.078316-71.68 0-106.280421z" fill="currentColor" p-id="2158"></path></svg>