<svg t="1690873878390"  viewBox="0 0 1024 1024" version="1.1" xmlns="http://www.w3.org/2000/svg" p-id="2465" ><path d="M110.592 78.201263c25.168842 0 26.138947 17.677474 26.138947 29.642105l-5.928421 782.44379 785.192421-3.449263c11.856842 0 27.162947 10.563368 27.162948 26.731789s-19.186526 26.947368-31.097263 26.947369H147.456A66.829474 66.829474 0 0 1 80.842105 873.525895V107.789474c0-11.964632 4.581053-29.642105 29.749895-29.642106z m753.394526 189.278316a26.947368 26.947368 0 0 1 9.701053 33.145263l-2.263579 4.257684-158.558316 237.945263a80.626526 80.626526 0 0 1-102.831158 27.594106l-7.06021-3.934316-129.562948-81.273263a26.839579 26.839579 0 0 0-33.576421 4.096l-2.96421 3.718737-190.841263 283.701894a26.839579 26.839579 0 0 1-46.942316-25.869473l2.317474-4.257685 190.841263-283.701894a80.626526 80.626526 0 0 1 102.669473-27.324632l7.060211 3.988211 129.509053 81.219368c10.994526 6.844632 25.007158 4.850526 33.68421-4.149895l2.964211-3.772631 158.558315-237.891369a26.839579 26.839579 0 0 1 37.295158-7.491368z" fill="currentColor" p-id="2466"></path></svg>